<svg width="412" height="378" viewBox="0 0 412 378" fill="none" xmlns="http://www.w3.org/2000/svg">
<rect width="412" height="378" fill="#077037"/>
<path d="M61 73H107.4V305H61V73Z" fill="white"/>
<path d="M304.6 73H351V305H304.6V73Z" fill="white"/>
<path d="M159.6 258.6C185.226 258.6 206 279.374 206 305H61V258.6L159.6 258.6Z" fill="white"/>
<path d="M252.4 258.6C226.774 258.6 206 279.374 206 305H351V258.6L252.4 258.6Z" fill="white"/>
<path d="M159.6 73C185.226 73 206 93.774 206 119.4L61 119.4L61 73L159.6 73Z" fill="white"/>
<path d="M252.4 73C226.774 73 206 93.774 206 119.4L351 119.4V73L252.4 73Z" fill="white"/>
<path d="M138.8 216V167H177.3V180.44H157.28V185.48H175.2V196.82H157.28V202.56H177.3V216H138.8ZM206.086 216V198.22C204.873 199.013 203.403 199.69 201.676 200.25C199.996 200.81 197.85 201.09 195.236 201.09C190.196 201.09 186.463 199.83 184.036 197.31C181.656 194.743 180.466 190.637 180.466 184.99V167H198.946V181.35C198.946 183.263 199.203 184.547 199.716 185.2C200.23 185.807 201.163 186.11 202.516 186.11C203.17 186.11 203.8 186.04 204.406 185.9C205.013 185.713 205.573 185.457 206.086 185.13V167H224.566V216H206.086ZM230.196 216V167H270.446V179.74H248.676V184.22H253.296C260.996 184.22 266.526 185.62 269.886 188.42C273.293 191.173 274.996 194.953 274.996 199.76C274.996 204.893 273.293 208.883 269.886 211.73C266.526 214.577 260.996 216 253.296 216H230.196ZM248.676 203.26H251.546C253.086 203.26 254.23 203.003 254.976 202.49C255.723 201.977 256.096 201.067 256.096 199.76C256.096 198.453 255.723 197.543 254.976 197.03C254.23 196.517 253.086 196.26 251.546 196.26H248.676V203.26Z" fill="white"/>
</svg>
