<svg width="1360" height="232" viewBox="0 0 1360 232" fill="none" xmlns="http://www.w3.org/2000/svg">
<path d="M2.02821e-06 2.02821e-06H46.4V232H2.02821e-06V2.02821e-06Z" fill="white"/>
<path d="M243.6 2.02821e-06H290V232H243.6V2.02821e-06Z" fill="white"/>
<path d="M98.6 185.6C124.226 185.6 145 206.374 145 232H2.02821e-06V185.6L98.6 185.6Z" fill="white"/>
<path d="M191.4 185.6C165.774 185.6 145 206.374 145 232H290V185.6L191.4 185.6Z" fill="white"/>
<path d="M98.6 0C124.226 1.12015e-06 145 20.774 145 46.4L0 46.4L2.02821e-06 2.02821e-06L98.6 0Z" fill="white"/>
<path d="M191.4 0C165.774 1.12015e-06 145 20.774 145 46.4L290 46.4V2.02821e-06L191.4 0Z" fill="white"/>
<path d="M77.8 143V94H116.3V107.44H96.28V112.48H114.2V123.82H96.28V129.56H116.3V143H77.8Z" fill="white"/>
<path d="M145.086 143V125.22C143.873 126.013 142.403 126.69 140.676 127.25C138.996 127.81 136.85 128.09 134.236 128.09C129.196 128.09 125.463 126.83 123.036 124.31C120.656 121.743 119.466 117.637 119.466 111.99V94H137.946V108.35C137.946 110.263 138.203 111.547 138.716 112.2C139.23 112.807 140.163 113.11 141.516 113.11C142.17 113.11 142.8 113.04 143.406 112.9C144.013 112.713 144.573 112.457 145.086 112.13V94H163.566V143H145.086Z" fill="white"/>
<path d="M169.196 143V94H209.446V106.74H187.676V111.22H192.296C199.996 111.22 205.526 112.62 208.886 115.42C212.293 118.173 213.996 121.953 213.996 126.76C213.996 131.893 212.293 135.883 208.886 138.73C205.526 141.577 199.996 143 192.296 143H169.196ZM187.676 130.26H190.546C192.086 130.26 193.23 130.003 193.976 129.49C194.723 128.977 195.096 128.067 195.096 126.76C195.096 125.453 194.723 124.543 193.976 124.03C193.23 123.517 192.086 123.26 190.546 123.26H187.676V130.26Z" fill="white"/>
<path d="M341.8 101V52H380.3V65.44H360.28V70.48H378.2V81.82H360.28V87.56H380.3V101H341.8Z" fill="white"/>
<path d="M383.73 109.75V88.68H387.23C387.883 87.6533 388.373 86.51 388.7 85.25C389.073 83.9433 389.33 82.59 389.47 81.19C389.657 79.79 389.75 78.4367 389.75 77.13V63.9H423V88.68H426.5V109.75H413.9V101H396.33V109.75H383.73ZM401.51 88.68H407.6V76.22H403.05V78.6C403.05 81.2133 402.887 83.3367 402.56 84.97C402.233 86.6033 401.883 87.84 401.51 88.68Z" fill="white"/>
<path d="M429.975 101V63.9H445.375V79.3L455.525 63.9H468.475V101H453.075V85.6L442.925 101H429.975Z" fill="white"/>
<path d="M473.384 101V63.9H488.784V75.94H496.484V63.9H511.884V101H496.484V88.26H488.784V101H473.384Z" fill="white"/>
<path d="M516.792 101V63.9H532.192V75.24H536.042C540.988 75.24 544.838 76.1967 547.592 78.11C550.392 79.9767 551.792 83.1967 551.792 87.77C551.792 90.1967 551.302 92.4133 550.322 94.42C549.342 96.4267 547.685 98.0367 545.352 99.25C543.065 100.417 539.962 101 536.042 101H516.792ZM532.192 90.08H533.522C534.455 90.08 535.155 89.8933 535.622 89.52C536.135 89.1 536.392 88.5167 536.392 87.77C536.392 86.93 536.135 86.3467 535.622 86.02C535.109 85.6467 534.385 85.46 533.452 85.46H532.192V90.08ZM553.192 101V63.9H568.592V101H553.192Z" fill="white"/>
<path d="M573.872 101V63.9H589.272V79.3L599.422 63.9H612.372V101H596.972V85.6L586.822 101H573.872ZM593.122 60.05C587.849 60.05 584.069 59.1167 581.782 57.25C579.542 55.3367 578.422 52.77 578.422 49.55H590.322C590.322 50.9033 590.555 51.86 591.022 52.42C591.489 52.9333 592.189 53.19 593.122 53.19C594.055 53.19 594.755 52.9333 595.222 52.42C595.689 51.86 595.922 50.9033 595.922 49.55H607.822C607.822 52.77 606.679 55.3367 604.392 57.25C602.152 59.1167 598.395 60.05 593.122 60.05Z" fill="white"/>
<path d="M659.35 101V83.22C658.137 84.0133 656.667 84.69 654.94 85.25C653.26 85.81 651.113 86.09 648.5 86.09C643.46 86.09 639.727 84.83 637.3 82.31C634.92 79.7433 633.73 75.6367 633.73 69.99V52H652.21V66.35C652.21 68.2633 652.467 69.5467 652.98 70.2C653.493 70.8067 654.427 71.11 655.78 71.11C656.433 71.11 657.063 71.04 657.67 70.9C658.277 70.7133 658.837 70.4567 659.35 70.13V52H677.83V101H659.35Z" fill="white"/>
<path d="M683.11 101V63.9H698.51V79.3L708.66 63.9H721.61V101H706.21V85.6L696.06 101H683.11Z" fill="white"/>
<path d="M735.268 101V76.22H725.468V63.9H760.468V76.22H750.668V101H735.268Z" fill="white"/>
<path d="M773.804 102.05C771.144 102.05 768.857 101.537 766.944 100.51C765.077 99.4367 763.654 98.0133 762.674 96.24C761.694 94.42 761.204 92.39 761.204 90.15C761.204 86.4633 762.347 83.5467 764.634 81.4C766.921 79.2533 770.561 78.18 775.554 78.18H783.604V77.2C783.604 75.9867 783.347 75.1467 782.834 74.68C782.321 74.1667 781.644 73.91 780.804 73.91C779.917 73.91 779.264 74.05 778.844 74.33C778.471 74.5633 778.191 74.9367 778.004 75.45H763.304C763.444 73.0233 764.144 70.8767 765.404 69.01C766.711 67.0967 768.671 65.6033 771.284 64.53C773.897 63.41 777.187 62.85 781.154 62.85C784.654 62.85 787.734 63.3633 790.394 64.39C793.101 65.4167 795.201 67.0733 796.694 69.36C798.234 71.6467 799.004 74.7267 799.004 78.6V91.55C799.004 93.51 799.051 95.2367 799.144 96.73C799.284 98.1767 799.471 99.6 799.704 101H785.004C784.817 100.487 784.654 99.9267 784.514 99.32C784.374 98.7133 784.304 97.8733 784.304 96.8C783.464 98.2 782.297 99.4367 780.804 100.51C779.311 101.537 776.977 102.05 773.804 102.05ZM779.754 90.99C780.641 90.99 781.364 90.85 781.924 90.57C782.484 90.2433 782.904 89.8 783.184 89.24C783.464 88.6333 783.604 87.8867 783.604 87V86.3H779.754C778.867 86.3 778.191 86.4867 777.724 86.86C777.257 87.2333 777.024 87.8167 777.024 88.61C777.024 89.4033 777.257 90.01 777.724 90.43C778.191 90.8033 778.867 90.99 779.754 90.99Z" fill="white"/>
<path d="M811.626 101V76.22H801.826V63.9H836.826V76.22H827.026V101H811.626Z" fill="white"/>
<path d="M850.161 102.05C847.501 102.05 845.215 101.537 843.301 100.51C841.435 99.4367 840.011 98.0133 839.031 96.24C838.051 94.42 837.561 92.39 837.561 90.15C837.561 86.4633 838.705 83.5467 840.991 81.4C843.278 79.2533 846.918 78.18 851.911 78.18H859.961V77.2C859.961 75.9867 859.705 75.1467 859.191 74.68C858.678 74.1667 858.001 73.91 857.161 73.91C856.275 73.91 855.621 74.05 855.201 74.33C854.828 74.5633 854.548 74.9367 854.361 75.45H839.661C839.801 73.0233 840.501 70.8767 841.761 69.01C843.068 67.0967 845.028 65.6033 847.641 64.53C850.255 63.41 853.545 62.85 857.511 62.85C861.011 62.85 864.091 63.3633 866.751 64.39C869.458 65.4167 871.558 67.0733 873.051 69.36C874.591 71.6467 875.361 74.7267 875.361 78.6V91.55C875.361 93.51 875.408 95.2367 875.501 96.73C875.641 98.1767 875.828 99.6 876.061 101H861.361C861.175 100.487 861.011 99.9267 860.871 99.32C860.731 98.7133 860.661 97.8733 860.661 96.8C859.821 98.2 858.655 99.4367 857.161 100.51C855.668 101.537 853.335 102.05 850.161 102.05ZM856.111 90.99C856.998 90.99 857.721 90.85 858.281 90.57C858.841 90.2433 859.261 89.8 859.541 89.24C859.821 88.6333 859.961 87.8867 859.961 87V86.3H856.111C855.225 86.3 854.548 86.4867 854.081 86.86C853.615 87.2333 853.381 87.8167 853.381 88.61C853.381 89.4033 853.615 90.01 854.081 90.43C854.548 90.8033 855.225 90.99 856.111 90.99Z" fill="white"/>
<path d="M882.017 102.05C881.643 102.05 880.99 102.027 880.057 101.98C879.17 101.98 878.54 101.933 878.167 101.84V89.52C878.307 89.5667 878.657 89.59 879.217 89.59C880.057 89.59 880.78 89.3567 881.387 88.89C882.04 88.4233 882.53 87.56 882.857 86.3C883.23 84.9933 883.417 83.1267 883.417 80.7V63.9H917.017V101H901.617V76.22H896.717V82.1C896.717 86.3933 896.367 89.87 895.667 92.53C895.013 95.1433 894.057 97.15 892.797 98.55C891.537 99.9033 889.997 100.813 888.177 101.28C886.357 101.793 884.303 102.05 882.017 102.05Z" fill="white"/>
<path d="M922.239 101V63.9H937.639V75.24H942.189C947.136 75.24 950.986 76.1967 953.739 78.11C956.539 79.9767 957.939 83.1967 957.939 87.77C957.939 90.1967 957.449 92.4133 956.469 94.42C955.49 96.4267 953.833 98.0367 951.499 99.25C949.213 100.417 946.109 101 942.189 101H922.239ZM937.639 90.08H939.669C940.603 90.08 941.303 89.8933 941.769 89.52C942.283 89.1 942.539 88.5167 942.539 87.77C942.539 86.93 942.283 86.3467 941.769 86.02C941.256 85.6467 940.533 85.46 939.599 85.46H937.639V90.08Z" fill="white"/>
<path d="M980.011 102.05C976.045 102.05 972.591 101.257 969.651 99.67C966.711 98.0367 964.425 95.7733 962.791 92.88C961.205 89.9867 960.411 86.6267 960.411 82.8V81.4C960.411 77.76 961.205 74.5633 962.791 71.81C964.425 69.01 966.711 66.8167 969.651 65.23C972.591 63.6433 976.045 62.85 980.011 62.85C984.771 62.85 988.528 63.5733 991.281 65.02C994.035 66.4667 996.041 68.45 997.301 70.97C998.608 73.4433 999.378 76.22 999.611 79.3H985.191C985.005 77.8067 984.561 76.78 983.861 76.22C983.161 75.6133 982.228 75.31 981.061 75.31C980.035 75.31 979.148 75.5433 978.401 76.01C977.701 76.4767 977.165 77.1767 976.791 78.11C976.418 78.9967 976.231 80.0933 976.231 81.4V82.8C976.231 84.2933 976.395 85.5533 976.721 86.58C977.095 87.6067 977.631 88.3767 978.331 88.89C979.078 89.3567 979.988 89.59 981.061 89.59C982.135 89.59 983.045 89.31 983.791 88.75C984.538 88.1433 985.005 87.0933 985.191 85.6H999.611C999.378 89.0067 998.561 91.9467 997.161 94.42C995.808 96.8933 993.731 98.7833 990.931 100.09C988.178 101.397 984.538 102.05 980.011 102.05Z" fill="white"/>
<path d="M1003.1 101V63.9H1018.5V76.5H1019.9L1026.06 63.9H1042.3L1033.48 80.56L1043 101H1025.64L1019.9 87.7H1018.5V101H1003.1Z" fill="white"/>
<path d="M1045.62 101V63.9H1061.02V79.3L1071.17 63.9H1084.12V101H1068.72V85.6L1058.57 101H1045.62Z" fill="white"/>
<path d="M1089.03 101V63.9H1104.43V79.3L1114.58 63.9H1127.53V101H1112.13V85.6L1101.98 101H1089.03ZM1108.28 60.05C1103 60.05 1099.22 59.1167 1096.94 57.25C1094.7 55.3367 1093.58 52.77 1093.58 49.55H1105.48C1105.48 50.9033 1105.71 51.86 1106.18 52.42C1106.64 52.9333 1107.34 53.19 1108.28 53.19C1109.21 53.19 1109.91 52.9333 1110.38 52.42C1110.84 51.86 1111.08 50.9033 1111.08 49.55H1122.98C1122.98 52.77 1121.83 55.3367 1119.55 57.25C1117.31 59.1167 1113.55 60.05 1108.28 60.05Z" fill="white"/>
<path d="M1150.29 101V52H1190.54V64.74H1168.77V69.22H1173.39C1181.09 69.22 1186.62 70.62 1189.98 73.42C1193.38 76.1733 1195.09 79.9533 1195.09 84.76C1195.09 89.8933 1193.38 93.8833 1189.98 96.73C1186.62 99.5767 1181.09 101 1173.39 101H1150.29ZM1168.77 88.26H1171.64C1173.18 88.26 1174.32 88.0033 1175.07 87.49C1175.81 86.9767 1176.19 86.0667 1176.19 84.76C1176.19 83.4533 1175.81 82.5433 1175.07 82.03C1174.32 81.5167 1173.18 81.26 1171.64 81.26H1168.77V88.26Z" fill="white"/>
<path d="M1198.95 101V63.9H1214.35V79.3L1224.5 63.9H1237.45V101H1222.05V85.6L1211.9 101H1198.95Z" fill="white"/>
<path d="M1244.46 102.05C1244.08 102.05 1243.43 102.027 1242.5 101.98C1241.61 101.98 1240.98 101.933 1240.61 101.84V89.52C1240.75 89.5667 1241.1 89.59 1241.66 89.59C1242.5 89.59 1243.22 89.3567 1243.83 88.89C1244.48 88.4233 1244.97 87.56 1245.3 86.3C1245.67 84.9933 1245.86 83.1267 1245.86 80.7V63.9H1279.46V101H1264.06V76.22H1259.16V82.1C1259.16 86.3933 1258.81 89.87 1258.11 92.53C1257.45 95.1433 1256.5 97.15 1255.24 98.55C1253.98 99.9033 1252.44 100.813 1250.62 101.28C1248.8 101.793 1246.74 102.05 1244.46 102.05Z" fill="white"/>
<path d="M1303.58 102.05C1299.52 102.05 1295.93 101.35 1292.8 99.95C1289.72 98.55 1287.29 96.45 1285.52 93.65C1283.79 90.85 1282.93 87.35 1282.93 83.15V81.75C1282.93 77.55 1283.75 74.05 1285.38 71.25C1287.06 68.45 1289.39 66.35 1292.38 64.95C1295.41 63.55 1298.91 62.85 1302.88 62.85C1309.69 62.85 1314.71 64.4833 1317.93 67.75C1321.2 70.97 1322.83 75.7533 1322.83 82.1V86.3H1298.54C1298.68 87.3267 1298.91 88.19 1299.24 88.89C1299.61 89.59 1300.15 90.1267 1300.85 90.5C1301.55 90.8267 1302.46 90.99 1303.58 90.99C1304.89 90.99 1305.84 90.78 1306.45 90.36C1307.06 89.8933 1307.5 89.3567 1307.78 88.75H1322.48C1321.78 93.3233 1319.82 96.6833 1316.6 98.83C1313.43 100.977 1309.09 102.05 1303.58 102.05ZM1303.23 73.91C1302.2 73.91 1301.36 74.0967 1300.71 74.47C1300.06 74.8433 1299.57 75.3567 1299.24 76.01C1298.91 76.6167 1298.7 77.34 1298.61 78.18H1307.57C1307.48 77.34 1307.27 76.6167 1306.94 76.01C1306.61 75.3567 1306.15 74.8433 1305.54 74.47C1304.98 74.0967 1304.21 73.91 1303.23 73.91Z" fill="white"/>
<path d="M1334.37 101V76.22H1324.57V63.9H1359.57V76.22H1349.77V101H1334.37Z" fill="white"/>
<path d="M341.8 185V136H382.05V148.74H360.28V153.22H364.9C372.6 153.22 378.13 154.62 381.49 157.42C384.897 160.173 386.6 163.953 386.6 168.76C386.6 173.893 384.897 177.883 381.49 180.73C378.13 183.577 372.6 185 364.9 185H341.8ZM360.28 172.26H363.15C364.69 172.26 365.833 172.003 366.58 171.49C367.327 170.977 367.7 170.067 367.7 168.76C367.7 167.453 367.327 166.543 366.58 166.03C365.833 165.517 364.69 165.26 363.15 165.26H360.28V172.26Z" fill="white"/>
<path d="M390.464 185V147.9H405.864V163.3L416.014 147.9H428.964V185H413.564V169.6L403.414 185H390.464Z" fill="white"/>
<path d="M453.122 186.05C449.342 186.05 445.912 185.327 442.832 183.88C439.752 182.387 437.302 180.03 435.482 176.81C433.709 173.543 432.822 169.273 432.822 164V162.6C432.822 157.047 433.475 152.333 434.782 148.46C436.135 144.54 438.305 141.53 441.292 139.43C444.325 137.283 448.362 136.093 453.402 135.86C455.362 135.767 457.439 135.697 459.632 135.65C461.825 135.603 463.855 135.487 465.722 135.3C467.635 135.067 469.105 134.717 470.132 134.25V146.85C469.665 147.13 468.895 147.41 467.822 147.69C466.749 147.97 465.162 148.203 463.062 148.39C460.962 148.53 458.115 148.6 454.522 148.6C452.095 148.6 450.182 148.903 448.782 149.51C447.382 150.07 446.332 150.957 445.632 152.17C444.979 153.383 444.465 154.923 444.092 156.79C444.745 155.95 445.585 155.087 446.612 154.2C447.685 153.313 449.109 152.567 450.882 151.96C452.702 151.353 455.035 151.05 457.882 151.05C460.869 151.05 463.529 151.61 465.862 152.73C468.195 153.85 470.039 155.6 471.392 157.98C472.745 160.36 473.422 163.417 473.422 167.15V168.55C473.422 172.377 472.512 175.597 470.692 178.21C468.919 180.777 466.492 182.737 463.412 184.09C460.379 185.397 456.949 186.05 453.122 186.05ZM453.122 173.59C454.429 173.59 455.502 173.147 456.342 172.26C457.182 171.373 457.602 170.137 457.602 168.55V167.15C457.602 165.563 457.182 164.327 456.342 163.44C455.502 162.553 454.429 162.11 453.122 162.11C451.815 162.11 450.742 162.553 449.902 163.44C449.062 164.327 448.642 165.563 448.642 167.15V168.55C448.642 169.577 448.829 170.487 449.202 171.28C449.622 172.027 450.159 172.61 450.812 173.03C451.512 173.403 452.282 173.59 453.122 173.59Z" fill="white"/>
<path d="M478.696 186.05C478.323 186.05 477.67 186.027 476.736 185.98C475.85 185.98 475.22 185.933 474.846 185.84V173.52C474.987 173.567 475.336 173.59 475.896 173.59C476.736 173.59 477.46 173.357 478.066 172.89C478.72 172.423 479.21 171.56 479.536 170.3C479.91 168.993 480.096 167.127 480.096 164.7V147.9H513.696V185H498.296V160.22H493.396V166.1C493.396 170.393 493.047 173.87 492.346 176.53C491.693 179.143 490.736 181.15 489.476 182.55C488.216 183.903 486.676 184.813 484.856 185.28C483.036 185.793 480.983 186.05 478.696 186.05Z" fill="white"/>
<path d="M518.569 185V147.9H533.969V163.3L544.119 147.9H557.069V185H541.669V169.6L531.519 185H518.569Z" fill="white"/>
<path d="M580.877 186.05C577.097 186.05 573.667 185.373 570.587 184.02C567.507 182.62 565.057 180.497 563.237 177.65C561.464 174.803 560.577 171.187 560.577 166.8V165.4C560.577 161.34 561.464 157.933 563.237 155.18C565.057 152.427 567.507 150.35 570.587 148.95C573.667 147.55 577.097 146.85 580.877 146.85C584.704 146.85 588.134 147.55 591.167 148.95C594.247 150.35 596.674 152.427 598.447 155.18C600.267 157.933 601.177 161.34 601.177 165.4V166.8C601.177 171 600.267 174.547 598.447 177.44C596.674 180.287 594.247 182.433 591.167 183.88C588.134 185.327 584.704 186.05 580.877 186.05ZM580.877 173.59C581.811 173.59 582.604 173.38 583.257 172.96C583.957 172.493 584.471 171.77 584.797 170.79C585.171 169.763 585.357 168.433 585.357 166.8V165.4C585.357 163.953 585.171 162.787 584.797 161.9C584.471 161.013 583.957 160.36 583.257 159.94C582.604 159.52 581.811 159.31 580.877 159.31C579.944 159.31 579.127 159.52 578.427 159.94C577.774 160.36 577.261 161.013 576.887 161.9C576.561 162.787 576.397 163.953 576.397 165.4V166.8C576.397 168.433 576.561 169.763 576.887 170.79C577.261 171.77 577.774 172.493 578.427 172.96C579.127 173.38 579.944 173.59 580.877 173.59Z" fill="white"/>
<path d="M612.768 185V160.22H602.968V147.9H637.968V160.22H628.168V185H612.768Z" fill="white"/>
<path d="M660.388 186.05C656.328 186.05 652.734 185.35 649.607 183.95C646.527 182.55 644.101 180.45 642.328 177.65C640.601 174.85 639.737 171.35 639.737 167.15V165.75C639.737 161.55 640.554 158.05 642.188 155.25C643.867 152.45 646.201 150.35 649.188 148.95C652.221 147.55 655.721 146.85 659.688 146.85C666.501 146.85 671.517 148.483 674.737 151.75C678.004 154.97 679.638 159.753 679.638 166.1V170.3H655.347C655.487 171.327 655.721 172.19 656.047 172.89C656.421 173.59 656.958 174.127 657.658 174.5C658.358 174.827 659.268 174.99 660.388 174.99C661.694 174.99 662.651 174.78 663.258 174.36C663.864 173.893 664.307 173.357 664.588 172.75H679.287C678.587 177.323 676.628 180.683 673.408 182.83C670.234 184.977 665.894 186.05 660.388 186.05ZM660.037 157.91C659.011 157.91 658.171 158.097 657.518 158.47C656.864 158.843 656.374 159.357 656.047 160.01C655.721 160.617 655.511 161.34 655.417 162.18H664.378C664.284 161.34 664.074 160.617 663.747 160.01C663.421 159.357 662.954 158.843 662.347 158.47C661.787 158.097 661.017 157.91 660.037 157.91Z" fill="white"/>
<path d="M683.11 185V147.9H698.51V160.5H699.91L706.07 147.9H722.31L713.49 164.56L723.01 185H705.65L699.91 171.7H698.51V185H683.11Z" fill="white"/>
<path d="M725.63 185V147.9H741.03V163.3L751.18 147.9H764.13V185H748.73V169.6L738.58 185H725.63Z" fill="white"/>
<path d="M787.588 185V136H802.568L818.108 156.3V136H835.188V185H820.208L804.668 164.7V185H787.588ZM850.238 159.45C846.085 159.45 842.888 158.377 840.648 156.23C838.408 154.083 837.288 151.19 837.288 147.55V146.85C837.288 144.423 837.778 142.323 838.758 140.55C839.785 138.777 841.255 137.4 843.168 136.42C845.128 135.44 847.485 134.95 850.238 134.95C853.038 134.95 855.395 135.44 857.308 136.42C859.221 137.4 860.668 138.777 861.648 140.55C862.675 142.323 863.188 144.423 863.188 146.85V147.55C863.188 151.19 862.068 154.083 859.828 156.23C857.588 158.377 854.391 159.45 850.238 159.45ZM850.238 150.35C850.751 150.35 851.171 150.163 851.498 149.79C851.825 149.37 851.988 148.623 851.988 147.55V146.85C851.988 145.777 851.825 145.053 851.498 144.68C851.171 144.26 850.751 144.05 850.238 144.05C849.725 144.05 849.305 144.26 848.978 144.68C848.651 145.053 848.488 145.777 848.488 146.85V147.55C848.488 148.623 848.651 149.37 848.978 149.79C849.305 150.163 849.725 150.35 850.238 150.35ZM837.988 170.58V161.62H862.488V170.58H837.988Z" fill="white"/>
<path d="M865.963 185V170.16H875.273V153.85L865.963 160.5V143.77L876.883 136H893.753V170.16H900.963V185H865.963Z" fill="white"/>
<path d="M921.966 185V178.07H902.366V165.33L921.266 136H940.446V163.23H945.066V178.07H940.446V185H921.966ZM915.806 163.23H921.966V153.71L915.806 163.23Z" fill="white"/>
</svg>
